<svg xmlns="http://www.w3.org/2000/svg" viewBox="0 0 1400 900" role="img" aria-labelledby="title desc">
  <title id="title">OpenChimera Logo</title>
  <desc id="desc">A blue winged lion emblem above the OpenChimera wordmark.</desc>
  <rect width="1400" height="900" fill="#ffffff"/>
  <g transform="translate(0 15)" fill="#174a7a">
    <path d="M520 145c54 49 112 77 189 91-28 16-59 22-95 22 50 21 94 31 132 32-33 18-72 28-117 30 67 26 126 38 179 38-73 23-147 29-223 19-24-3-48-9-72-16-18-6-32-16-43-30-21-29-18-63 7-101 11-16 25-28 43-36Z"/>
    <path d="M535 210c54 41 112 64 173 72-26 14-54 20-87 20 44 17 82 26 116 26-28 16-61 24-99 25 54 19 104 29 151 29-60 18-120 22-181 12-41-7-71-24-88-51-14-22-12-48 6-76 3-5 7-10 9-15Z"/>
    <path d="M560 268c52 28 104 43 158 45-24 13-51 18-83 17 39 13 73 20 102 20-24 14-52 20-85 20 41 15 82 23 122 22-49 15-100 18-153 11-53-7-87-29-101-66-7-17-7-34 0-51 11-5 24-11 40-18Z"/>

    <path d="M807 205c37-24 84-34 142-30 38 2 73 11 103 26l-12 30c31 15 53 42 63 79 11 39 5 78-18 117-26 45-70 78-132 98l-32 10-14-31c-18 16-35 28-52 35-22 10-49 16-82 18 27-30 39-64 35-103-4-39-23-75-56-108l55 1-16-28c-22-38-16-79 16-124Z"/>
    <path d="M872 225c26-14 59-20 99-17 43 2 80 12 111 31-25 1-48 7-68 18 28 6 51 17 68 33-23-2-44 1-64 10 16 8 28 18 37 32-19-4-39-4-61 1-21 5-40 13-56 25 3-29 0-54-9-75-11-28-30-47-57-58Z" fill="#ffffff"/>
    <path d="M959 249c20-8 41-9 65-3 11 3 22 9 31 17-16 1-31 7-44 18 18 3 34 11 47 24-17 0-32 4-47 12 11 4 20 11 28 21-17 1-33 6-49 15 0-19-4-37-11-54-7-18-18-34-33-50 4 0 8 0 13-1Z"/>

    <path d="M562 438c58-40 132-58 224-54-66 22-117 52-152 90 70-29 145-31 225-5-88 4-161 28-219 74-36 28-58 59-67 95h-43c7-38 24-73 50-106-53 29-115 41-184 37 78-18 136-63 175-131-52 14-103 9-151-15 63-2 111-26 142-70Z"/>
    <path d="M399 474c19-11 40-16 61-16 24 0 47 6 68 19 18 11 30 26 38 43-26-8-51-8-74-2 31 13 51 34 61 63-27-13-52-18-77-15 26 18 40 41 43 70-28-15-53-20-77-14-43 10-71 36-83 76-12 41-7 80 16 119 26 46 72 74 138 85-37 14-79 14-126 0-58-18-99-55-122-111-20-49-20-97 1-144 27-61 71-105 133-132Z"/>
    <path d="M384 501c-25 24-43 53-53 87 17-11 34-17 53-18-21 24-32 49-34 76 15-10 32-16 52-18-16 22-24 45-25 69 20-20 42-33 68-39 10-2 22-3 34-2-24 17-38 41-42 72 53-19 90-52 113-99 18-38 24-75 18-111-8-48-36-78-84-90-37-9-70-1-100 24Z" fill="#ffffff"/>
  </g>

  <text x="700" y="805" text-anchor="middle" font-family="Segoe UI, Helvetica, Arial, sans-serif" font-size="116" font-weight="700" letter-spacing="3" fill="#174a7a">OPENCHIMERA</text>
</svg>