<svg xmlns="http://www.w3.org/2000/svg" viewBox="0 0 1200 420" role="img" aria-labelledby="title desc">
  <title id="title">OpenChimera Logo</title>
  <desc id="desc">A blue winged lion mark with OpenChimera wordmark.</desc>
  <rect width="1200" height="420" fill="#ffffff"/>
  <g fill="#15497b">
    <path d="M440 88c44 16 86 44 121 84 18 20 32 40 43 65 24-31 52-55 87-74 29-16 63-28 99-37-18 17-34 34-47 53 26 2 49 13 66 32 15 17 24 38 24 61 0 28-12 53-32 72-24 22-55 34-87 34-26 0-49-7-70-21-33-21-54-51-69-88-7 27-19 52-37 74-32 39-79 65-131 76 23-22 49-41 76-57-37 2-72-5-102-22-32-18-58-44-74-76-15-29-22-61-18-94 3-34 17-64 42-89 30-29 67-45 109-53Z"/>
    <path d="M476 110c-17 26-28 53-31 80 15-16 31-29 50-41-4 21-3 43 2 64 9-15 21-29 36-41 11 36 30 68 58 95-46-8-84-29-113-64-24-29-38-61-43-93-2-14-2-28 1-42 8 17 21 31 40 42Z" fill="#ffffff"/>
    <path d="M294 250c-29 0-53 19-60 47-8 32 8 67 38 83 18 10 40 14 66 13 21-1 44-7 68-19 30-15 59-38 88-70-18 10-40 17-66 22-25 5-47 6-67 3 10 10 22 20 37 28-28 2-54-4-77-19-17-11-30-25-39-42 17 4 35 5 54 2-20-12-34-28-43-48 10 1 20 1 30 0-15-15-23-33-22-53 8 15 19 27 33 36 7-26 22-48 45-65 18-14 39-23 62-28-15 16-25 34-31 54 20-13 41-22 65-26-16 18-28 39-36 61 17-8 35-12 55-12-25 12-47 29-66 52-28 33-57 57-87 71-22 11-44 16-66 16-21 0-40-5-57-15-28-17-43-48-38-79 5-32 31-56 63-60 7-1 14-1 21 0-8-10-12-21-11-34 11 18 29 29 54 33Z"/>
    <path d="M703 130c34 0 61 11 82 33-17-3-33-3-49 0 18 12 31 27 40 46-15-6-31-8-47-6 10 10 17 21 22 35-14-7-29-10-45-10-28 0-53 10-74 30 6-37 20-68 42-92 22-24 52-36 89-36Z"/>
    <path d="M286 330h526c24 0 44 18 44 41s-20 41-44 41H286c-24 0-44-18-44-41s20-41 44-41Z" fill="#ffffff" opacity="0"/>
  </g>
  <text x="600" y="382" text-anchor="middle" font-family="Segoe UI, Helvetica, Arial, sans-serif" font-size="88" font-weight="700" letter-spacing="4" fill="#15497b">OPENCHIMERA</text>
</svg>